<svg height="542" width="720" xmlns="http://www.w3.org/2000/svg">
<rect height="542" fill="#555" width="720"></rect>
<text fill="#7f7" font-family="Courier New" font-size="12" xml:space="preserve">
<tspan x="10" y="26">15 megabytes installed</tspan>
<tspan x="10" y="42"></tspan>
<tspan x="10" y="58">node_modules</tspan>
<tspan x="10" y="74">└─┬ babel-preset-node6@11.0.0 </tspan>
<tspan x="10" y="90">  ├── babel-plugin-syntax-trailing-function-commas@6.22.0 </tspan>
<tspan x="10" y="106">  └─┬ babel-plugin-transform-es2015-modules-commonjs@6.24.1 </tspan>
<tspan x="10" y="122">    ├── babel-plugin-transform-strict-mode@6.24.1 </tspan>
<tspan x="10" y="138">    ├─┬ babel-runtime@6.23.0 </tspan>
<tspan x="10" y="154">    │ ├── core-js@2.4.1 </tspan>
<tspan x="10" y="170">    │ └── regenerator-runtime@0.10.3 </tspan>
<tspan x="10" y="186">    ├─┬ babel-template@6.24.1 </tspan>
<tspan x="10" y="202">    │ ├─┬ babel-traverse@6.24.1 </tspan>
<tspan x="10" y="218">    │ │ ├─┬ babel-code-frame@6.22.0 </tspan>
<tspan x="10" y="234">    │ │ │ ├─┬ chalk@1.1.3 </tspan>
<tspan x="10" y="250">    │ │ │ │ ├── ansi-styles@2.2.1 </tspan>
<tspan x="10" y="266">    │ │ │ │ ├── escape-string-regexp@1.0.5 </tspan>
<tspan x="10" y="282">    │ │ │ │ ├─┬ has-ansi@2.0.0 </tspan>
<tspan x="10" y="298">    │ │ │ │ │ └── ansi-regex@2.1.1 </tspan>
<tspan x="10" y="314">    │ │ │ │ ├── strip-ansi@3.0.1 </tspan>
<tspan x="10" y="330">    │ │ │ │ └── supports-color@2.0.0 </tspan>
<tspan x="10" y="346">    │ │ │ └── js-tokens@3.0.1 </tspan>
<tspan x="10" y="362">    │ │ ├── babel-messages@6.23.0 </tspan>
<tspan x="10" y="378">    │ │ ├─┬ debug@2.6.3 </tspan>
<tspan x="10" y="394">    │ │ │ └── ms@0.7.2 </tspan>
<tspan x="10" y="410">    │ │ ├── globals@9.17.0 </tspan>
<tspan x="10" y="426">    │ │ └─┬ invariant@2.2.2 </tspan>
<tspan x="10" y="442">    │ │   └── loose-envify@1.3.1 </tspan>
<tspan x="10" y="458">    │ ├── babylon@6.16.1 </tspan>
<tspan x="10" y="474">    │ └── lodash@4.17.4 </tspan>
<tspan x="10" y="490">    └─┬ babel-types@6.24.1 </tspan>
<tspan x="10" y="506">      ├── esutils@2.0.2 </tspan>
<tspan x="10" y="522">      └── to-fast-properties@1.0.2</tspan>
</text>
</svg>
